<?xml version="1.0" standalone="no"?>
<!DOCTYPE svg PUBLIC "-//W3C//DTD SVG 20010904//EN"
 "http://www.w3.org/TR/2001/REC-SVG-20010904/DTD/svg10.dtd">
<svg version="1.0" xmlns="http://www.w3.org/2000/svg"
 width="401.000000pt" height="401.000000pt" viewBox="0 0 401.000000 401.000000"
 preserveAspectRatio="xMidYMid meet">
<metadata>
Created by potrace 1.11, written by Peter Selinger 2001-2013
</metadata>
<g transform="translate(0.000000,401.000000) scale(0.100000,-0.100000)"
fill="#000000" stroke="none">
<path d="M1030 3989 l-25 -21 -3 -265 c-2 -184 0 -269 8 -278 9 -10 54 -14
190 -15 167 0 180 1 189 19 7 12 11 117 11 265 1 216 -1 250 -16 275 -10 16
-27 32 -38 35 -12 3 -82 6 -156 6 -122 -1 -137 -3 -160 -21z"/>
<path d="M1845 3999 c-44 -22 -47 -38 -46 -307 1 -155 5 -260 11 -267 9 -10
100 -19 170 -16 8 0 56 0 107 1 81 0 94 2 103 19 10 21 14 488 4 527 -11 43
-52 54 -196 53 -73 0 -142 -5 -153 -10z"/>
<path d="M2644 3998 c-12 -5 -27 -21 -33 -34 -14 -32 -14 -524 1 -541 13 -16
341 -17 369 -2 18 9 19 26 19 261 0 139 -3 261 -6 273 -11 44 -51 55 -196 54
-73 0 -143 -5 -154 -11z"/>
<path d="M964 3207 c-81 -17 -143 -73 -158 -144 -9 -40 -10 -2074 -1 -2105 17
-61 52 -104 107 -132 36 -19 2112 -21 2162 -3 43 16 67 35 96 77 l25 35 2
1064 c2 1034 1 1066 -18 1102 -26 52 -64 85 -113 99 -47 13 -2040 20 -2102 7z
m1659 -426 c205 -99 233 -372 53 -508 -184 -137 -446 -22 -473 208 -15 128 76
267 204 313 54 20 161 13 216 -13z"/>
<path d="M44 2998 c-12 -5 -27 -21 -33 -34 -12 -26 -15 -262 -5 -302 14 -49
47 -55 318 -54 225 1 252 3 263 18 11 15 18 142 13 234 -1 14 -1 32 -1 40 3
63 0 86 -16 97 -21 16 -507 17 -539 1z"/>
<path d="M3416 2994 c-13 -13 -16 -44 -16 -183 0 -121 4 -172 13 -185 12 -16
35 -18 272 -17 l259 0 28 28 c30 31 29 17 29 226 0 84 -1 89 -30 117 l-29 30
-256 0 c-218 0 -257 -2 -270 -16z"/>
<path d="M50 2202 c-42 -20 -50 -51 -50 -192 0 -139 8 -171 47 -189 32 -15
507 -15 534 -1 18 10 19 23 19 189 0 142 -3 181 -14 190 -22 18 -500 20 -536
3z"/>
<path d="M3470 2212 c-24 -2 -50 -8 -57 -14 -18 -14 -18 -359 -1 -376 9 -9 83
-12 274 -12 l261 0 26 26 c20 20 26 36 26 72 1 26 1 54 2 62 0 8 0 24 -1 35
-1 11 -1 44 0 73 2 63 -13 105 -44 121 -21 12 -374 21 -486 13z"/>
<path d="M27 1382 c-27 -28 -27 -30 -27 -166 0 -138 6 -168 39 -193 21 -16
513 -18 542 -3 10 6 18 21 18 33 0 12 0 49 0 82 0 33 0 67 0 75 0 8 0 24 1 35
4 50 -3 141 -12 153 -8 9 -75 12 -272 12 l-262 0 -27 -28z"/>
<path d="M3412 1398 c-8 -8 -12 -67 -12 -190 0 -165 1 -178 19 -188 29 -15
521 -13 542 3 31 24 39 56 38 154 0 54 0 113 1 131 1 41 -27 89 -56 96 -45 12
-520 6 -532 -6z"/>
<path d="M1012 598 c-9 -9 -12 -82 -12 -266 0 -257 3 -282 39 -309 22 -16 300
-16 322 0 36 27 39 52 39 309 0 227 -1 254 -17 265 -23 18 -354 18 -371 1z"/>
<path d="M1810 590 c-16 -30 -15 -502 1 -532 23 -43 38 -46 189 -46 131 0 147
2 170 20 l25 20 3 263 c3 231 1 265 -13 279 -14 13 -43 16 -190 16 -165 0
-175 -1 -185 -20z"/>
<path d="M2618 600 c-15 -9 -16 -38 -17 -267 0 -259 3 -284 38 -310 10 -7 66
-11 161 -11 131 0 147 2 170 20 l25 20 2 267 c3 240 1 267 -14 279 -21 15
-339 17 -365 2z"/>
</g>
</svg>
