<?xml version="1.0"?>
<svg xmlns="http://www.w3.org/2000/svg" viewBox="0 0 64 64" width="512" height="512"><g id="Processor"><path d="M61,25a1,1,0,0,0,0-2H56V17h5a1,1,0,0,0,0-2H56V13a5.006,5.006,0,0,0-5-5H49V3a1,1,0,0,0-2,0V8H41V3a1,1,0,0,0-2,0V8H33V3a1,1,0,0,0-2,0V8H25V3a1,1,0,0,0-2,0V8H17V3a1,1,0,0,0-2,0V8H13a5.006,5.006,0,0,0-5,5v2H3a1,1,0,0,0,0,2H8v6H3a1,1,0,0,0,0,2H8v6H3a1,1,0,0,0,0,2H8v6H3a1,1,0,0,0,0,2H8v6H3a1,1,0,0,0,0,2H8v2a5.006,5.006,0,0,0,5,5h2v5a1,1,0,0,0,2,0V56h6v5a1,1,0,0,0,2,0V56h6v5a1,1,0,0,0,2,0V56h6v5a1,1,0,0,0,2,0V56h6v5a1,1,0,0,0,2,0V56h2a5.006,5.006,0,0,0,5-5V49h5a1,1,0,0,0,0-2H56V41h5a1,1,0,0,0,0-2H56V33h5a1,1,0,0,0,0-2H56V25ZM54,51a3,3,0,0,1-3,3H13a3,3,0,0,1-3-3V13a3,3,0,0,1,3-3H51a3,3,0,0,1,3,3Z"/><path d="M51,41V23a1,1,0,0,0-.331-.743l-10-9A1,1,0,0,0,40,13H23a1,1,0,0,0-.707.293l-9,9A1,1,0,0,0,13,23V41a1,1,0,0,0,.293.707l9,9A1,1,0,0,0,23,51H41a1,1,0,0,0,.707-.293l9-9A1,1,0,0,0,51,41Zm-2-.414L40.586,49H23.414L15,40.586V23.414L23.414,15h16.2L49,23.445Z"/><path d="M49,12a3,3,0,1,0,3,3A3,3,0,0,0,49,12Zm0,4a1,1,0,1,1,1-1A1,1,0,0,1,49,16Z"/><path d="M15,18a3,3,0,1,0-3-3A3,3,0,0,0,15,18Zm0-4a1,1,0,1,1-1,1A1,1,0,0,1,15,14Z"/><path d="M49,46a3,3,0,1,0,3,3A3,3,0,0,0,49,46Zm0,4a1,1,0,1,1,1-1A1,1,0,0,1,49,50Z"/><path d="M15,46a3,3,0,1,0,3,3A3,3,0,0,0,15,46Zm0,4a1,1,0,1,1,1-1A1,1,0,0,1,15,50Z"/><path d="M32,26a6,6,0,1,0,6,6A6.006,6.006,0,0,0,32,26Zm0,10a4,4,0,1,1,4-4A4,4,0,0,1,32,36Z"/><path d="M36.419,21.927c-.136-.059-.275-.117-.419-.174V18a1,1,0,0,0-1-1H29a1,1,0,0,0-1,1v3.753c-.144.057-.283.114-.419.174l-2.654-2.654a1,1,0,0,0-1.414,0l-4.24,4.24a1,1,0,0,0,0,1.414l2.654,2.654c-.06.136-.117.275-.174.419H18a1,1,0,0,0-1,1v6a1,1,0,0,0,1,1h3.753c.057.144.114.283.174.419l-2.654,2.654a1,1,0,0,0,0,1.414l4.24,4.24a1,1,0,0,0,1.414,0l2.654-2.654c.136.06.275.117.419.174V46a1,1,0,0,0,1,1h6a1,1,0,0,0,1-1V42.247c.144-.057.283-.115.419-.174l2.654,2.654a1.029,1.029,0,0,0,1.414,0l4.24-4.24a1,1,0,0,0,0-1.414l-2.654-2.655c.06-.135.117-.274.174-.418H46a1,1,0,0,0,1-1V29a1,1,0,0,0-1-1H42.247c-.057-.144-.114-.283-.174-.419l2.654-2.654a1,1,0,0,0,0-1.414l-4.24-4.24a1,1,0,0,0-1.414,0Zm6.186,2.293-2.452,2.453a1,1,0,0,0-.17,1.187,8.225,8.225,0,0,1,.605,1.446A1,1,0,0,0,41.54,30H45v4H41.54a1,1,0,0,0-.952.694,8.225,8.225,0,0,1-.605,1.446,1,1,0,0,0,.17,1.187l2.452,2.453L39.78,42.606l-2.453-2.453a1,1,0,0,0-1.188-.17,8.112,8.112,0,0,1-1.446.605A1,1,0,0,0,34,41.54V45H30V41.54a1,1,0,0,0-.694-.952,8.259,8.259,0,0,1-1.445-.605,1,1,0,0,0-1.188.17L24.22,42.606,21.394,39.78l2.453-2.453a1,1,0,0,0,.17-1.188,8.259,8.259,0,0,1-.605-1.445A1,1,0,0,0,22.46,34H19V30h3.46a1,1,0,0,0,.952-.694,8.259,8.259,0,0,1,.605-1.445,1,1,0,0,0-.17-1.188L21.394,24.22l2.826-2.826,2.453,2.453a1,1,0,0,0,1.188.17,8.259,8.259,0,0,1,1.445-.605A1,1,0,0,0,30,22.46V19h4v3.46a1,1,0,0,0,.693.952,8.112,8.112,0,0,1,1.446.605,1,1,0,0,0,1.188-.17l2.453-2.453Z"/></g></svg>
